<svg width="174" height="42" viewBox="0 0 174 42" xmlns="http://www.w3.org/2000/svg"><g id="Website" stroke="none" stroke-width="1" fill="none" fill-rule="evenodd"><g id="Desktop-header-footer" transform="translate(-90 -12)"><g id="Header-web-Copy-11"><g id="CarDekho-Logo" transform="translate(90 12)"><g id="Group" fill="#F75D34"><path d="M40.424 19.972c0 9.95-7.208 18.233-16.693 19.887l-2.19-12.439c3.547-.621 6.261-3.731 6.261-7.462 0-3.732-2.7-6.841-6.261-7.463L23.73.057c9.485 1.682 16.693 9.964 16.693 19.915zM18.912 27.435L16.72 39.873C7.237 38.205.028 29.936.028 19.986c0-9.95 7.209-18.233 16.693-19.887l2.19 12.438c-3.547.622-6.26 3.732-6.26 7.463.013 3.703 2.713 6.813 6.26 7.435z" id="Path"/></g><g id="Group-23" transform="translate(49 10)" fill="#24282C"><path d="M.621 10.26C.621 4.55 4.861.184 10.713.184c3.52 0 6.615 1.753 8.311 4.495l-3.83 2.219c-.862-1.499-2.516-2.389-4.48-2.389-3.435 0-5.654 2.304-5.654 5.767 0 3.463 2.219 5.767 5.653 5.767 1.965 0 3.661-.89 4.48-2.39l3.831 2.22c-1.668 2.742-4.763 4.495-8.31 4.495C4.861 20.353.62 15.97.62 10.26z" id="Path"/><path d="M34.968 5.229V20.38H30.67v-1.767c-.947 1.088-2.346 1.753-4.269 1.753-3.745 0-6.84-3.294-6.84-7.562 0-4.269 3.095-7.562 6.84-7.562 1.923 0 3.322.664 4.269 1.753V5.243h4.297v-.014zM30.67 12.79c0-2.149-1.428-3.492-3.406-3.492-1.98 0-3.407 1.343-3.407 3.492 0 2.148 1.428 3.49 3.407 3.49 1.978 0 3.406-1.342 3.406-3.49z" id="Shape" fill-rule="nonzero"/><path d="M44.706 5.229v4.904c-1.795-.282-4.339.439-4.339 3.294v6.94h-4.34V5.229h4.354v2.855c.58-1.936 2.516-2.855 4.325-2.855z" id="Path"/><path d="M63.674 10.275c0 5.71-4.24 10.092-9.809 10.092H45.78V.183h8.085c5.57 0 9.81 4.382 9.81 10.092zm-4.438 0c0-3.463-2.19-5.654-5.37-5.654h-3.464v11.307h3.463c3.166 0 5.371-2.19 5.371-5.653zM72.197 16.508c1.174 0 2.177-.452 2.757-1.088l3.434 1.978c-1.399 1.951-3.52 2.955-6.247 2.955-4.89 0-7.93-3.294-7.93-7.562 0-4.269 3.096-7.562 7.619-7.562 4.184 0 7.28 3.237 7.28 7.562 0 .607-.057 1.173-.17 1.724H68.777c.523 1.484 1.852 1.993 3.42 1.993zm2.644-5.216c-.453-1.653-1.753-2.261-3.04-2.261-1.625 0-2.727.806-3.123 2.261h6.163z" id="Shape" fill-rule="nonzero"/><path id="Path" d="M88.763 20.38l-4.438-6.12v6.12h-4.156V.184h4.156v11.11l4.155-6.064h4.848l-5.046 7.336 5.173 7.802h-4.692zM107.844 10.967v9.414h-4.155v-8.806c0-1.724-1.075-2.516-2.403-2.516-1.527 0-2.573.89-2.573 2.855v8.467h-4.155V.183h4.155v6.742c.75-1.032 2.135-1.696 3.958-1.696 2.799 0 5.173 1.993 5.173 5.738z"/><path d="M108.918 12.79c0-4.268 3.378-7.561 7.59-7.561s7.59 3.293 7.59 7.562c0 4.268-3.378 7.562-7.59 7.562s-7.59-3.294-7.59-7.562zm10.884 0c0-2.035-1.428-3.377-3.294-3.377-1.865 0-3.293 1.342-3.293 3.378 0 2.035 1.428 3.378 3.293 3.378 1.866 0 3.294-1.343 3.294-3.378z" id="Shape" fill-rule="nonzero"/></g><path d="M94.101 40l-1.043-1.96h-.616V40h-.847v-4.963h1.904c.959 0 1.554.665 1.554 1.505 0 .707-.427 1.246-1.12 1.414L95.053 40h-.952zm-1.659-2.702h.903c.518 0 .854-.301.854-.756 0-.462-.336-.763-.854-.763h-.903v1.519zM96.803 40h-.854v-4.963h.854V40zm5.593 0h-.679l-.063-.63c-.217.364-.728.735-1.519.735-1.295 0-2.443-.952-2.443-2.59 0-1.631 1.211-2.583 2.499-2.583 1.204 0 1.974.693 2.24 1.512l-.791.301c-.168-.56-.658-1.036-1.449-1.036-.805 0-1.645.574-1.645 1.806 0 1.211.784 1.82 1.638 1.82 1.001 0 1.379-.686 1.421-1.113h-1.638v-.735h2.429V40zm5.033 0h-.847v-2.121h-2.331V40h-.84v-4.963h.84v2.051h2.331v-2.051h.847V40zm4.753-4.172h-1.617V40h-.84v-4.172h-1.61v-.791h4.067v.791zm4.627 4.277c-1.337 0-2.506-.966-2.506-2.583 0-1.617 1.211-2.59 2.499-2.59 1.26 0 2.009.742 2.233 1.61l-.791.266c-.147-.602-.609-1.085-1.442-1.085-.819 0-1.638.595-1.638 1.799 0 1.162.798 1.778 1.645 1.778.833 0 1.309-.532 1.477-1.092l.77.252c-.224.84-.98 1.645-2.247 1.645zM123.13 40l-.469-1.246h-2.1L120.099 40h-.889l1.932-4.963h.973L124.047 40h-.917zm-1.519-4.053l-.756 2.03h1.512l-.756-2.03zM127.218 40l-1.043-1.96h-.616V40h-.847v-4.963h1.904c.959 0 1.554.665 1.554 1.505 0 .707-.427 1.246-1.12 1.414L128.17 40h-.952zm-1.659-2.702h.903c.518 0 .854-.301.854-.756 0-.462-.336-.763-.854-.763h-.903v1.519zm3.297 2.191c0-.294.252-.532.581-.532.371 0 .637.294.637.742 0 .98-.665 1.393-1.141 1.456v-.413a.824.824 0 0 0 .623-.756.35.35 0 0 1-.168.035.507.507 0 0 1-.532-.532zm6.51.511l-1.043-1.96h-.616V40h-.847v-4.963h1.904c.959 0 1.554.665 1.554 1.505 0 .707-.427 1.246-1.12 1.414l1.12 2.044h-.952zm-1.659-2.702h.903c.518 0 .854-.301.854-.756 0-.462-.336-.763-.854-.763h-.903v1.519zM138.068 40h-.854v-4.963h.854V40zm5.593 0h-.679l-.063-.63c-.217.364-.728.735-1.519.735-1.295 0-2.443-.952-2.443-2.59 0-1.631 1.211-2.583 2.499-2.583 1.204 0 1.974.693 2.24 1.512l-.791.301c-.168-.56-.658-1.036-1.449-1.036-.805 0-1.645.574-1.645 1.806 0 1.211.784 1.82 1.638 1.82 1.001 0 1.379-.686 1.421-1.113h-1.638v-.735h2.429V40zm5.033 0h-.847v-2.121h-2.331V40h-.84v-4.963h.84v2.051h2.331v-2.051h.847V40zm4.753-4.172h-1.617V40h-.84v-4.172h-1.61v-.791h4.067v.791zM160.034 40h-.875l-2.45-3.759V40h-.84v-4.963h1.071l2.254 3.521v-3.521h.84V40zm1.75-2.485c0 1.197.826 1.792 1.659 1.792.84 0 1.666-.595 1.666-1.792s-.826-1.792-1.666-1.792c-.833 0-1.659.595-1.659 1.792zm-.861 0c0-1.624 1.218-2.583 2.52-2.583s2.527.959 2.527 2.583c0 1.631-1.225 2.59-2.527 2.59s-2.52-.959-2.52-2.59zm10.374 1.176l.973-3.654h.868L171.745 40h-.868l-1.204-3.752L168.469 40h-.861l-1.407-4.963h.882l.994 3.626 1.162-3.626h.875l1.183 3.654z" id="Right-Car,-Right-Now" fill="#24272C"/></g></g></g></g></svg>